<svg id="svg" xmlns="http://www.w3.org/2000/svg" xmlns:xlink="http://www.w3.org/1999/xlink" width="400" height="149.45054945054946" viewBox="0, 0, 400,149.45054945054946"><g id="svgg"><path id="path0" d="M361.026 15.531 C 360.703 15.853,360.440 19.852,360.440 24.416 C 360.440 31.808,360.279 32.654,358.971 32.152 C 352.926 29.832,344.369 29.738,194.337 30.342 C 64.738 30.863,38.650 31.169,35.732 32.198 C 30.650 33.991,25.378 38.685,22.392 44.075 L 19.780 48.791 19.780 74.286 C 19.780 105.671,21.732 110.778,35.723 116.013 C 40.862 117.935,353.437 118.493,358.462 116.589 C 360.426 115.844,360.440 115.895,360.440 124.147 C 360.440 133.594,360.532 133.809,364.045 132.585 C 369.272 130.762,371.566 119.122,367.650 114.286 C 366.106 112.379,366.128 112.271,368.594 109.631 C 374.873 102.909,374.945 102.507,374.945 74.286 L 374.945 48.791 372.614 44.396 C 371.333 41.978,369.270 39.055,368.032 37.899 L 365.780 35.799 367.505 33.605 C 372.490 27.268,366.368 10.189,361.026 15.531 M365.538 19.516 C 366.832 20.810,366.933 29.371,365.683 31.706 C 363.875 35.085,363.077 33.317,363.077 25.934 C 363.077 18.540,363.489 17.467,365.538 19.516 M58.901 35.165 C 58.901 36.785,58.315 36.923,51.438 36.923 C 38.648 36.923,30.394 41.463,25.547 51.162 L 22.857 56.545 22.857 73.390 C 22.857 101.697,29.270 110.446,50.769 111.470 C 58.166 111.823,58.901 112.016,58.901 113.604 C 58.901 116.047,40.068 115.612,35.165 113.056 C 23.724 107.091,22.475 103.544,22.134 76.044 C 21.750 45.135,23.668 39.908,37.353 34.572 C 42.333 32.631,58.901 33.086,58.901 35.165 M101.099 35.165 C 101.099 36.871,100.513 36.923,81.319 36.923 C 62.125 36.923,61.538 36.871,61.538 35.165 C 61.538 33.459,62.125 33.407,81.319 33.407 C 100.513 33.407,101.099 33.459,101.099 35.165 M143.297 35.165 C 143.297 36.871,142.711 36.923,123.516 36.923 C 104.322 36.923,103.736 36.871,103.736 35.165 C 103.736 33.459,104.322 33.407,123.516 33.407 C 142.711 33.407,143.297 33.459,143.297 35.165 M185.495 35.165 C 185.495 36.871,184.908 36.923,165.714 36.923 C 146.520 36.923,145.934 36.871,145.934 35.165 C 145.934 33.459,146.520 33.407,165.714 33.407 C 184.908 33.407,185.495 33.459,185.495 35.165 M228.571 35.165 C 228.571 36.872,227.985 36.923,208.352 36.923 C 188.718 36.923,188.132 36.872,188.132 35.165 C 188.132 33.458,188.718 33.407,208.352 33.407 C 227.985 33.407,228.571 33.458,228.571 35.165 M270.769 35.165 C 270.769 36.871,270.183 36.923,250.989 36.923 C 231.795 36.923,231.209 36.871,231.209 35.165 C 231.209 33.459,231.795 33.407,250.989 33.407 C 270.183 33.407,270.769 33.459,270.769 35.165 M312.967 35.165 C 312.967 36.871,312.381 36.923,293.187 36.923 C 273.993 36.923,273.407 36.871,273.407 35.165 C 273.407 33.459,273.993 33.407,293.187 33.407 C 312.381 33.407,312.967 33.459,312.967 35.165 M357.363 34.236 C 359.598 35.133,353.102 37.164,347.692 37.259 C 326.852 37.625,315.604 36.891,315.604 35.165 C 315.604 33.294,352.946 32.463,357.363 34.236 M362.294 40.440 C 362.628 41.648,362.941 49.462,362.989 57.802 L 363.077 72.967 357.802 72.967 L 352.527 72.967 352.499 63.956 C 352.483 59.000,352.099 52.374,351.646 49.231 C 351.193 46.088,350.711 42.754,350.576 41.822 C 350.043 38.151,361.294 36.824,362.294 40.440 M370.767 46.593 C 373.350 51.752,373.069 97.481,370.423 102.418 C 367.249 108.340,364.756 110.073,365.533 105.815 C 366.349 101.346,366.337 48.298,365.518 42.637 L 364.883 38.242 367.054 40.879 C 368.248 42.330,369.919 44.901,370.767 46.593 M344.917 40.537 C 348.860 42.333,349.291 44.752,349.675 67.253 C 350.109 92.700,349.190 103.948,346.452 106.686 L 344.567 108.571 197.998 108.571 C 35.298 108.571,48.981 109.081,41.775 102.754 C 35.317 97.084,34.304 93.302,34.294 74.827 C 34.282 51.610,37.775 44.400,50.983 40.382 C 54.701 39.251,342.427 39.402,344.917 40.537 M40.263 43.090 C 38.494 44.547,35.833 48.171,34.348 51.142 L 31.648 56.545 31.657 74.206 C 31.667 94.678,32.464 97.617,39.847 104.396 C 44.468 108.638,43.975 109.069,37.993 106.016 C 27.393 100.607,25.536 95.883,25.522 74.286 C 25.509 53.168,27.775 47.396,38.242 41.896 C 42.593 39.609,43.695 40.260,40.263 43.090 M39.270 55.089 C 38.946 55.413,38.681 56.007,38.681 56.410 C 38.681 56.813,107.747 57.143,192.161 57.143 C 314.554 57.143,345.567 56.920,345.275 56.044 C 344.877 54.850,40.459 53.900,39.270 55.089 M39.291 73.529 C 38.982 73.838,38.940 74.432,39.197 74.848 C 40.122 76.346,345.495 75.785,345.495 74.286 C 345.495 72.913,40.660 72.160,39.291 73.529 M362.926 92.266 C 362.590 111.680,362.702 111.415,355.637 109.570 C 349.497 107.967,349.616 108.081,350.818 104.957 C 351.355 103.560,352.019 96.385,352.293 89.011 L 352.792 75.604 358.003 75.604 L 363.214 75.604 362.926 92.266 M39.270 91.133 C 38.946 91.457,38.681 92.051,38.681 92.454 C 38.681 92.857,107.747 93.187,192.161 93.187 C 314.554 93.187,345.567 92.964,345.275 92.088 C 344.877 90.894,40.459 89.944,39.270 91.133 M353.656 111.683 C 363.085 113.793,358.292 114.706,336.221 115.004 C 315.880 115.278,315.604 115.257,315.604 113.465 C 315.604 111.716,316.085 111.644,328.571 111.544 C 335.703 111.487,342.725 111.140,344.176 110.772 C 345.626 110.404,347.209 110.203,347.692 110.324 C 348.176 110.446,350.859 111.057,353.656 111.683 M101.099 113.407 C 101.099 115.113,100.513 115.165,81.319 115.165 C 62.125 115.165,61.538 115.113,61.538 113.407 C 61.538 111.700,62.125 111.648,81.319 111.648 C 100.513 111.648,101.099 111.700,101.099 113.407 M143.297 113.407 C 143.297 115.113,142.711 115.165,123.516 115.165 C 104.322 115.165,103.736 115.113,103.736 113.407 C 103.736 111.700,104.322 111.648,123.516 111.648 C 142.711 111.648,143.297 111.700,143.297 113.407 M185.495 113.407 C 185.495 115.113,184.908 115.165,165.714 115.165 C 146.520 115.165,145.934 115.113,145.934 113.407 C 145.934 111.700,146.520 111.648,165.714 111.648 C 184.908 111.648,185.495 111.700,185.495 113.407 M228.571 113.407 C 228.571 115.114,227.985 115.165,208.352 115.165 C 188.718 115.165,188.132 115.114,188.132 113.407 C 188.132 111.699,188.718 111.648,208.352 111.648 C 227.985 111.648,228.571 111.699,228.571 113.407 M270.769 113.407 C 270.769 115.113,270.183 115.165,250.989 115.165 C 231.795 115.165,231.209 115.113,231.209 113.407 C 231.209 111.700,231.795 111.648,250.989 111.648 C 270.183 111.648,270.769 111.700,270.769 113.407 M312.967 113.407 C 312.967 115.113,312.381 115.165,293.187 115.165 C 273.993 115.165,273.407 115.113,273.407 113.407 C 273.407 111.700,273.993 111.648,293.187 111.648 C 312.381 111.648,312.967 111.700,312.967 113.407 M366.593 122.198 C 366.593 126.084,366.201 127.555,364.835 128.791 C 363.089 130.372,363.077 130.327,363.077 122.198 C 363.077 114.069,363.089 114.024,364.835 115.604 C 366.201 116.840,366.593 118.312,366.593 122.198 " stroke="none" fill="#000000" fill-rule="evenodd"></path></g></svg>