<svg id="svg" xmlns="http://www.w3.org/2000/svg" xmlns:xlink="http://www.w3.org/1999/xlink" width="400" height="200" viewBox="0, 0, 400,200"><g id="svgg"><path id="path0" d="M222.923 1.147 C 221.283 2.187,221.409 4.446,223.547 12.333 C 224.376 15.392,178.427 15.562,133.333 12.667 C 82.021 9.372,68.248 10.278,31.333 19.378 C 1.024 26.850,0.667 27.789,0.667 100.000 C 0.667 172.211,1.024 173.150,31.333 180.622 C 68.248 189.722,82.021 190.628,133.333 187.333 C 149.833 186.274,176.995 185.390,193.692 185.370 L 224.051 185.333 223.235 189.000 C 222.786 191.017,222.110 193.792,221.733 195.166 C 220.787 198.618,223.491 199.956,231.460 199.980 C 239.063 200.002,241.095 198.495,244.466 190.333 L 246.531 185.333 265.599 185.348 C 278.630 185.358,286.739 185.991,291.212 187.348 C 318.682 195.681,358.472 186.759,377.487 168.002 C 409.235 136.687,409.171 63.719,377.369 31.982 C 358.623 13.274,318.692 4.316,291.212 12.652 C 286.739 14.009,278.630 14.642,265.599 14.652 L 246.531 14.667 244.466 9.667 C 240.718 0.590,230.298 -3.531,222.923 1.147 M235.018 5.667 C 236.225 6.583,238.418 10.183,239.892 13.667 L 242.572 20.000 264.512 20.000 C 280.388 20.000,288.784 19.402,294.892 17.837 C 324.882 10.154,365.740 21.248,369.102 37.986 C 371.562 50.236,376.417 56.008,386.928 59.179 C 397.610 62.401,397.610 137.599,386.928 140.821 C 376.417 143.992,371.562 149.764,369.102 162.014 C 365.740 178.752,324.882 189.846,294.892 182.163 C 288.786 180.598,280.390 180.000,264.542 180.000 L 242.633 180.000 239.481 187.128 C 236.273 194.380,233.664 196.555,229.901 195.111 C 228.421 194.543,228.047 193.329,228.632 190.997 C 229.089 189.178,229.822 185.888,230.263 183.686 L 231.063 179.684 182.532 180.393 C 155.839 180.783,123.800 181.791,111.334 182.633 C 80.647 184.706,61.259 182.639,27.553 173.703 C 17.543 171.049,13.953 169.484,12.386 167.092 C 2.382 151.825,2.382 48.175,12.386 32.908 C 13.953 30.516,17.543 28.951,27.553 26.297 C 61.259 17.361,80.647 15.294,111.334 17.367 C 149.190 19.924,230.668 20.691,230.659 18.489 C 230.655 17.487,230.004 14.334,229.212 11.482 C 228.077 7.395,228.149 6.059,229.553 5.169 C 231.925 3.666,232.446 3.713,235.018 5.667 M255.333 37.462 C 252.400 38.118,245.616 39.607,240.257 40.769 C 233.264 42.286,229.218 44.020,225.923 46.913 L 221.333 50.943 221.333 100.000 L 221.333 149.057 225.898 153.065 C 232.970 159.275,262.811 165.577,272.043 162.811 C 309.290 151.652,311.128 53.396,274.376 38.068 C 268.946 35.803,263.516 35.630,255.333 37.462 M382.524 49.364 C 384.743 53.313,385.035 54.667,383.668 54.667 C 379.822 54.667,372.000 43.716,372.000 38.330 C 372.000 35.944,379.258 43.554,382.524 49.364 M274.000 41.194 C 307.148 56.542,305.955 146.691,272.435 159.493 C 263.361 162.958,234.499 157.098,227.000 150.268 L 224.000 147.535 224.000 99.886 L 224.000 52.237 228.103 48.785 C 232.622 44.982,232.599 44.989,250.667 41.405 C 266.705 38.223,267.564 38.215,274.000 41.194 M66.397 53.351 C 42.809 57.279,33.333 70.648,33.333 100.000 C 33.333 129.983,42.674 142.693,67.688 146.749 C 88.512 150.124,91.402 150.053,95.394 146.061 L 98.667 142.788 98.667 100.000 L 98.667 57.212 95.394 53.939 C 91.443 49.988,87.117 49.900,66.397 53.351 M93.333 56.000 C 95.885 58.552,96.000 60.444,96.000 100.000 C 96.000 152.432,98.193 148.843,69.095 144.043 C 43.626 139.842,36.825 130.560,36.825 100.000 C 36.825 69.857,43.790 60.103,68.261 55.977 C 86.989 52.819,90.155 52.822,93.333 56.000 M382.524 150.636 C 379.258 156.446,372.000 164.056,372.000 161.670 C 372.000 156.284,379.822 145.333,383.668 145.333 C 385.035 145.333,384.743 146.687,382.524 150.636 " stroke="none" fill="#000000" fill-rule="evenodd"></path></g></svg>